<?xml version="1.0" encoding="UTF-8"?>
<svg version="1.1" xmlns="http://www.w3.org/2000/svg" width="512" height="512">
<path d="M0 0 C0.66157421 -0.00538554 1.32314842 -0.01077108 2.00477034 -0.01631981 C4.21419181 -0.03058919 6.42301327 -0.02349858 8.63246155 -0.01637268 C10.21950766 -0.02207681 11.80654966 -0.02904124 13.39358521 -0.03717041 C17.69939896 -0.05511237 22.00500904 -0.0539315 26.31084895 -0.04822803 C29.90681919 -0.04513764 33.50275023 -0.05122696 37.09871489 -0.05726677 C45.5826532 -0.07131382 54.06649081 -0.06974925 62.5504303 -0.05836487 C71.30000836 -0.04688341 80.04927991 -0.0609593 88.79881757 -0.08776134 C96.31404622 -0.10991961 103.82917866 -0.11655544 111.34443766 -0.11068493 C115.83158715 -0.10731445 120.31854016 -0.10973642 124.80566216 -0.12693596 C129.02551296 -0.14240508 133.24490979 -0.13845015 137.46474266 -0.11963081 C139.01189334 -0.11594481 140.55907766 -0.11905381 142.10619736 -0.1295166 C144.22162969 -0.14272863 146.3355595 -0.13117987 148.45092773 -0.11352539 C149.63354659 -0.11331611 150.81616545 -0.11310682 152.03462124 -0.1128912 C157.03530967 0.6562986 160.05843368 2.80663374 163.14266968 6.7694397 C164.47568991 9.81420108 164.65121783 11.96157183 164.62953186 15.27952576 C164.62930527 16.44035172 164.62907867 17.60117767 164.62884521 18.79718018 C164.61336136 20.04005295 164.5978775 21.28292572 164.58192444 22.5634613 C164.5776796 23.84375717 164.57343475 25.12405304 164.56906128 26.44314575 C164.55764706 29.83481139 164.52821023 33.22608712 164.49494934 36.61759949 C164.46417404 40.08322374 164.45054008 43.54891145 164.43544006 47.01463318 C164.40237761 53.80581735 164.35218238 60.59671336 164.28895569 67.38768005 C165.47117171 67.38353199 165.47117171 67.38353199 166.67727089 67.37930012 C185.85662573 67.31304032 205.03595772 67.26339948 224.2154026 67.23224354 C233.4904504 67.2167762 242.76542178 67.1956892 252.04042053 67.16136169 C260.12473075 67.13145529 268.20898563 67.11210408 276.29334962 67.10541457 C280.57377052 67.10150442 284.85403309 67.09231777 289.13440323 67.07048988 C293.16449014 67.05010511 297.19435373 67.04385026 301.2244873 67.04835701 C302.70230702 67.0475327 304.18013431 67.0415788 305.65790939 67.03006363 C307.67888208 67.01509016 309.69997499 67.02052503 311.72099304 67.0269165 C312.85111124 67.02415112 313.98122944 67.02138575 315.14559364 67.01853657 C320.0356387 67.59280331 323.27393685 69.29036239 326.60145569 72.88768005 C329.14974573 76.66292456 329.41523939 79.46745031 329.42317677 83.91550827 C329.42763461 85.07220166 329.43209245 86.22889505 329.43668538 87.42063975 C329.43640884 89.33571295 329.43640884 89.33571295 329.43612671 91.28947449 C329.43942558 92.65493285 329.4431512 94.02039024 329.44726819 95.38584638 C329.45729457 99.14683468 329.46100604 102.90780702 329.4636575 106.66880679 C329.46755892 110.72225546 329.4771377 114.77569148 329.48587036 118.82913208 C329.50564431 128.62559226 329.51570434 138.42205348 329.52459815 148.21852863 C329.52898147 152.83396718 329.53434835 157.44940458 329.53958702 162.06484222 C329.55660387 177.41333147 329.5710957 192.76182 329.57833576 208.11031723 C329.58024562 212.09453584 329.58216595 216.07875444 329.5841217 220.06297302 C329.58460544 221.05321658 329.58508918 222.04346014 329.58558758 223.06371108 C329.59387898 239.08717506 329.61919877 255.11056418 329.65170238 271.1339955 C329.68481612 287.59279502 329.70278861 304.05155657 329.70598 320.51038957 C329.70814163 329.74803445 329.71683871 338.98557032 329.74244118 348.22318268 C329.76420756 356.09490454 329.77216969 363.96649092 329.7624744 371.83823946 C329.75794618 375.85025245 329.75972879 379.86198626 329.77923584 383.87396049 C329.7969882 387.55712547 329.79577352 391.23981012 329.78033855 394.92298105 C329.77687548 396.86527585 329.79289852 398.8075764 329.80994302 400.74979949 C329.67602865 419.2896475 323.390207 434.2399704 310.28895569 447.38768005 C309.74754944 447.95228943 309.20614319 448.5168988 308.64833069 449.09861755 C294.45099421 462.65062055 275.26621933 463.8442694 256.80326843 463.77536011 C254.96547254 463.77954035 253.12767923 463.78502163 251.28989065 463.79167992 C246.27461555 463.8060615 241.2595058 463.8019128 236.24422193 463.79451311 C230.82229929 463.7897659 225.40041164 463.80230464 219.97850037 463.81253052 C209.37241337 463.82969055 198.76638568 463.83056473 188.16028841 463.82531761 C179.54130997 463.82127127 170.92234903 463.82272496 162.30337143 463.82806587 C160.46129081 463.82918851 160.46129081 463.82918851 158.58199643 463.83033382 C156.08707576 463.83186532 153.59215508 463.83340367 151.09723441 463.83494879 C127.72534639 463.84866244 104.35349188 463.84324297 80.98160462 463.83176357 C59.5965954 463.82182127 38.211676 463.83479111 16.82667978 463.85869776 C-5.14125214 463.88307095 -27.10914378 463.8927017 -49.07708895 463.88604504 C-61.40679415 463.88255029 -73.73643281 463.88480237 -86.06612778 463.90229607 C-96.55599221 463.91699527 -107.0457432 463.91768277 -117.53560536 463.90022516 C-122.88751905 463.89169611 -128.23922986 463.88961241 -133.59113312 463.90487671 C-138.48981261 463.91867572 -143.38811447 463.91402243 -148.28677185 463.89463747 C-150.05902661 463.89086261 -151.83131128 463.89384204 -153.60353951 463.90424912 C-170.17788079 463.99466141 -170.17788079 463.99466141 -176.71104431 459.38768005 C-180.45624636 454.55516129 -180.83573168 450.09994058 -180.84526539 444.12379074 C-180.84972323 442.82842038 -180.85418108 441.53305002 -180.85877401 440.19842601 C-180.85868471 438.75758409 -180.85849486 437.31674217 -180.85821533 435.87590027 C-180.86151475 434.3478477 -180.86524048 432.81979601 -180.86935681 431.29174542 C-180.87937582 427.08624252 -180.88309344 422.8807539 -180.88574612 418.67524076 C-180.88964939 414.14204886 -180.89922762 409.60886827 -180.90795898 405.07568359 C-180.92772131 394.1257931 -180.93778868 383.17590168 -180.94668677 372.22599781 C-180.95106949 367.07071616 -180.95643629 361.91543555 -180.96167564 356.76015472 C-180.97868663 339.62559599 -180.99318163 322.4910379 -181.00042439 305.35647202 C-181.0023343 300.9100062 -181.00425463 296.46354038 -181.00621033 292.01707458 C-181.00669407 290.91191699 -181.00717781 289.8067594 -181.00767621 288.66811219 C-181.01597966 270.75822751 -181.0413225 252.84840955 -181.073791 234.93855402 C-181.10684631 216.55534568 -181.12487171 198.17217126 -181.12806863 179.78893304 C-181.13023499 169.46556221 -181.13900226 159.14228873 -181.1645298 148.81894684 C-181.18621578 140.02881405 -181.19429752 131.23880225 -181.18456302 122.44864574 C-181.18001241 117.96359211 -181.18194873 113.47878822 -181.20132446 108.99376869 C-181.21891444 104.88666164 -181.21799249 100.77998729 -181.20242717 96.67287591 C-181.20004477 95.18833551 -181.20440746 93.70376547 -181.21625582 92.21927044 C-181.27596377 84.24337471 -181.26190319 78.11079049 -176.71104431 71.38768005 C-170.14795341 65.92949327 -161.85143697 66.84848651 -153.75791931 66.93357849 C-152.24936961 66.93470819 -150.74081771 66.93407071 -149.23226929 66.93180847 C-145.15623177 66.93066517 -141.08066923 66.95411174 -137.00474167 66.9821043 C-132.7380034 67.00718234 -128.47125312 67.00946499 -124.20445251 67.01420593 C-116.13331547 67.02661696 -108.06239626 67.05941306 -99.99135494 67.09960389 C-90.79911395 67.14438007 -81.60686232 67.16632332 -72.41453934 67.18638563 C-53.51325103 67.22814746 -34.61216521 67.2984629 -15.71104431 67.38768005 C-15.71992676 66.68912399 -15.7288092 65.99056793 -15.73796082 65.27084351 C-15.8183368 58.66555429 -15.87912482 52.0604029 -15.918293 45.45473385 C-15.93910742 42.05920368 -15.96731019 38.6640799 -16.01280212 35.26878357 C-16.0648522 31.35924763 -16.0840405 27.44987233 -16.10166931 23.5400238 C-16.12231445 22.32934738 -16.14295959 21.11867096 -16.16423035 19.87130737 C-16.16600366 13.17625774 -15.95727457 8.70543555 -11.71104431 3.38768005 C-7.75430167 0.44292047 -4.88548559 0.01004128 0 0 Z M13.28895569 29.38768005 C13.28895569 41.92768005 13.28895569 54.46768005 13.28895569 67.38768005 C53.54895569 67.38768005 93.80895569 67.38768005 135.28895569 67.38768005 C135.28895569 54.84768005 135.28895569 42.30768005 135.28895569 29.38768005 C95.02895569 29.38768005 54.76895569 29.38768005 13.28895569 29.38768005 Z " fill="#454B53" transform="translate(181.71104431152344,23.612319946289063)"/>
<path d="M0 0 C2.30993177 3.07990903 3.98981679 5.70713269 5.71484375 9.0859375 C6.22966309 10.0872168 6.74448242 11.08849609 7.27490234 12.12011719 C7.82355957 13.19422852 8.3722168 14.26833984 8.9375 15.375 C13.15104146 23.55734218 17.42893568 31.69165003 21.875 39.75 C26.22296655 47.64470542 30.41541514 55.61177861 34.53622437 63.62661743 C36.74305417 67.91624288 38.96082264 72.20022412 41.17919922 76.48388672 C42.36761201 78.77880775 43.55421901 81.07466506 44.73876953 83.37158203 C46.33055873 86.44401885 47.94290979 89.50464774 49.5625 92.5625 C50.0265625 93.46613281 50.490625 94.36976563 50.96875 95.30078125 C51.41347656 96.1309375 51.85820313 96.96109375 52.31640625 97.81640625 C52.69224854 98.53256104 53.06809082 99.24871582 53.45532227 99.98657227 C55.99723132 103.29985249 58.92621511 105.63270894 63.12903309 106.37707615 C65.68288289 106.53123135 68.21053243 106.56013305 70.76904297 106.54589844 C72.21876244 106.56140495 72.21876244 106.56140495 73.69776917 106.57722473 C76.87941253 106.60662696 80.06041902 106.60815139 83.2421875 106.609375 C85.45322888 106.62435834 87.66425907 106.64108581 89.87527466 106.65948486 C95.68506386 106.70315299 101.49470207 106.72315645 107.30462646 106.73822021 C113.23702927 106.75779308 119.16926907 106.79976297 125.1015625 106.83984375 C136.73432472 106.91514021 148.36705044 106.96543525 160 107 C160.59421753 108.62264771 160.59421753 108.62264771 161.20043945 110.27807617 C161.73369106 111.72061271 162.26714934 113.16307285 162.80078125 114.60546875 C163.06024536 115.3157019 163.31970947 116.02593506 163.58703613 116.75769043 C169.87126456 133.68573962 180.80698225 145.83871905 197 154 C212.53974005 160.72396519 230.84098868 163.27705744 247 157 C247.98097656 156.64808594 248.96195313 156.29617188 249.97265625 155.93359375 C257.08550654 153.20894946 262.99246792 149.65268656 269 145 C269.61359375 144.56300781 270.2271875 144.12601563 270.859375 143.67578125 C282.40497786 134.85769466 288.18250716 120.50163962 292 107 C293.82164169 106.99120064 293.82164169 106.99120064 295.68008423 106.98222351 C307.12750635 106.92499912 318.57473846 106.85223873 330.02196693 106.76428509 C335.90704605 106.71956651 341.79205569 106.68031346 347.67724609 106.65356445 C353.35727483 106.62754662 359.03703645 106.58715448 364.71689987 106.53681374 C366.88337251 106.52013483 369.04989137 106.50862694 371.21641922 106.50238609 C374.25214866 106.49275637 377.28719314 106.46470976 380.32275391 106.43237305 C381.21755463 106.43380814 382.11235535 106.43524323 383.03427124 106.4367218 C388.1011456 106.36044114 391.5967596 105.78614291 396 103 C397.48849722 101.4689166 397.48849722 101.4689166 398.4375 99.62109375 C398.84226562 98.9132373 399.24703125 98.20538086 399.6640625 97.47607422 C400.32535156 96.25041748 400.32535156 96.25041748 401 95 C401.52335937 94.0527002 402.04671875 93.10540039 402.5859375 92.12939453 C404.41445518 88.78624781 406.21091961 85.42682783 408 82.0625 C408.66372107 80.81944675 409.3275411 79.57644633 409.99145508 78.33349609 C414.8263774 69.26777068 419.56924466 60.15559264 424.28833008 51.02905273 C428.31006651 43.27209533 432.45947908 35.59175518 436.66577148 27.93359375 C441.55890354 19.01579697 446.29347653 10.01736576 451 1 C451.33 1 451.66 1 452 1 C452.09158629 35.24318565 452.16205433 69.4863433 452.20426132 103.72962501 C452.20926405 107.77377039 452.21444135 111.81791553 452.21972656 115.86206055 C452.2207758 116.66716574 452.22182505 117.47227094 452.22290608 118.30177326 C452.240304 131.33224804 452.2718383 144.36265213 452.30861118 157.393085 C452.34603769 170.7668208 452.36823946 184.14051962 452.37635398 197.51430565 C452.38183822 205.7644645 452.39915001 214.01442351 452.43166587 222.26452083 C452.45283488 227.92447976 452.45919466 233.5843356 452.45400551 239.24433123 C452.45144739 242.50830654 452.45752347 245.77186024 452.4768219 249.03578949 C452.49674897 252.57995877 452.49192821 256.12327584 452.48101807 259.66746521 C452.49266943 260.69180568 452.5043208 261.71614614 452.51632524 262.77152723 C452.44160688 271.76336989 449.45181079 280.48585287 443 287 C435.85789087 292.11497585 429.56723609 295.25128238 420.70052624 295.24609566 C419.6079365 295.24955719 419.6079365 295.24955719 418.49327424 295.25308865 C416.04548859 295.25839458 413.59796452 295.24939968 411.15019226 295.24050903 C409.3804618 295.24138098 407.61073159 295.24313176 405.84100276 295.24568737 C400.97239297 295.25016706 396.1038709 295.24214865 391.23527229 295.23213124 C385.98718572 295.22350801 380.73910424 295.2264161 375.49101257 295.22793579 C366.39649467 295.22898536 357.30200543 295.22270127 348.20749474 295.21146011 C335.05830262 295.19521778 321.90912438 295.1899984 308.75992332 295.18748413 C287.42709922 295.18310504 266.09429041 295.16979012 244.76147461 295.15087891 C224.03654048 295.13252565 203.31161052 295.11838936 182.58666992 295.10986328 C181.29651861 295.10932729 180.00636731 295.10879129 178.67712051 295.10823905 C168.58754499 295.1040803 158.49796938 295.10016642 148.40839374 295.09632993 C98.93891514 295.07745677 49.46947477 295.03722153 0 295 C0 197.65 0 100.3 0 0 Z " fill="#AFDFD3" transform="translate(30,163)"/>
<path d="M0 0 C142.89 0 285.78 0 433 0 C428.02982549 9.94034902 423.0347002 19.79687781 417.75 29.5625 C416.43434276 32.00291015 415.12098985 34.44455347 413.80859375 36.88671875 C413.48432907 37.48997986 413.16006439 38.09324097 412.82597351 38.71478271 C409.77071988 44.40869296 406.78559316 50.13789405 403.8125 55.875 C399.56274071 64.07040995 395.18465939 72.1849298 390.72998047 80.27050781 C387.75155994 85.70614958 384.85339187 91.17752053 382.015625 96.6875 C381.67674759 97.34543549 381.33787018 98.00337097 380.98872375 98.6812439 C379.31471447 101.9359254 377.64736459 105.19387353 375.98706055 108.45556641 C375.37551408 109.65007831 374.76394298 110.84457761 374.15234375 112.0390625 C373.3478479 113.62001709 373.3478479 113.62001709 372.52709961 115.23291016 C369.95478515 119.89391928 369.95478515 119.89391928 368 122 C365.67814761 122.49679399 365.67814761 122.49679399 362.88317585 122.49219131 C361.81825045 122.50015551 360.75332505 122.5081197 359.65612918 122.51632524 C357.89496455 122.49884819 357.89496455 122.49884819 356.09822083 122.48101807 C354.23227604 122.48614462 354.23227604 122.48614462 352.32863539 122.49137473 C348.86899911 122.4968368 345.41026206 122.48428975 341.95073426 122.46426249 C338.22273571 122.44702523 334.49476607 122.45283153 330.76673889 122.45587158 C324.3055084 122.45797132 317.8444392 122.44539712 311.38324928 122.42292023 C302.04142468 122.39044343 292.69967825 122.37999765 283.35780331 122.37496826 C268.20211435 122.36620881 253.04651139 122.33957563 237.89086914 122.30175781 C223.16658967 122.26505453 208.44233354 122.23673454 193.71801758 122.21972656 C192.81075909 122.21867567 191.90350061 122.21762477 190.96874944 122.21654204 C186.41740383 122.21132197 181.86605805 122.20626712 177.31471217 122.20129442 C139.54308071 122.15981215 101.77154705 122.08934606 64 122 C62.07839016 118.48559199 60.15821349 114.97040286 58.23828125 111.45507812 C57.69788208 110.46679016 57.15748291 109.4785022 56.60070801 108.46026611 C52.63127345 101.19002082 48.77151966 93.87500132 45 86.5 C40.76625884 78.27605146 36.46267444 70.10202125 32 62 C26.91901932 52.77543883 22.05936734 43.44669306 17.24169922 34.08227539 C12.82203266 25.51616475 8.25368683 17.0411182 3.5546875 8.625 C3.08546875 7.77808594 2.61625 6.93117188 2.1328125 6.05859375 C1.71918457 5.31923584 1.30555664 4.57987793 0.87939453 3.81811523 C0 2 0 2 0 0 Z " fill="#DFF0F7" transform="translate(40,120)"/>
<path d="M0 0 C24.42 0 48.84 0 74 0 C70.69212305 9.92363086 64.37456877 17.23854972 55 22 C48.99207886 24.83828682 43.6663344 25.49282535 37.0625 25.4375 C35.79889648 25.4674707 35.79889648 25.4674707 34.50976562 25.49804688 C24.24021091 25.49014114 15.90524186 20.73247478 8.4375 13.875 C5 10 5 10 0 0 Z " fill="#FCFDFD" transform="translate(219,270)"/>
</svg>
